<svg width="19" height="18" viewBox="0 0 19 18" fill="none" xmlns="http://www.w3.org/2000/svg">
<path d="M5.02751 13.5C5.1891 13.0609 5.48875 12.6806 5.88517 12.4116C6.28159 12.1426 6.75526 11.9982 7.24088 11.9982C7.72651 11.9982 8.20017 12.1426 8.59659 12.4116C8.99301 12.6806 9.29267 13.0609 9.45426 13.5H17.4083V15H9.45426C9.29267 15.4392 8.99301 15.8194 8.59659 16.0884C8.20017 16.3574 7.72651 16.5018 7.24088 16.5018C6.75526 16.5018 6.28159 16.3574 5.88517 16.0884C5.48875 15.8194 5.1891 15.4392 5.02751 15H1.76611V13.5H5.02751ZM9.72017 8.25001C9.88176 7.81086 10.1814 7.43058 10.5778 7.1616C10.9743 6.89262 11.4479 6.74817 11.9335 6.74817C12.4192 6.74817 12.8928 6.89262 13.2893 7.1616C13.6857 7.43058 13.9853 7.81086 14.1469 8.25001H17.4083V9.75001H14.1469C13.9853 10.1892 13.6857 10.5694 13.2893 10.8384C12.8928 11.1074 12.4192 11.2518 11.9335 11.2518C11.4479 11.2518 10.9743 11.1074 10.5778 10.8384C10.1814 10.5694 9.88176 10.1892 9.72017 9.75001H1.76611V8.25001H9.72017ZM5.02751 3.00001C5.1891 2.56086 5.48875 2.18058 5.88517 1.9116C6.28159 1.64262 6.75526 1.49817 7.24088 1.49817C7.72651 1.49817 8.20017 1.64262 8.59659 1.9116C8.99301 2.18058 9.29267 2.56086 9.45426 3.00001H17.4083V4.50001H9.45426C9.29267 4.93916 8.99301 5.31943 8.59659 5.58841C8.20017 5.8574 7.72651 6.00184 7.24088 6.00184C6.75526 6.00184 6.28159 5.8574 5.88517 5.58841C5.48875 5.31943 5.1891 4.93916 5.02751 4.50001H1.76611V3.00001H5.02751Z" fill="#AAACAE"/>
</svg>
