<svg width="26" height="24" viewBox="0 0 26 24" fill="none" xmlns="http://www.w3.org/2000/svg">
<rect x="0.5" y="0.5" width="24.0266" height="23" stroke="white"/>
<path fill-rule="evenodd" clip-rule="evenodd" d="M12.5132 17.8476C18.3937 17.8476 21.1141 17.1242 21.3768 14.2205C21.3768 11.3188 19.4802 11.5054 19.4802 7.94511C19.4802 5.16414 16.7315 2 12.5132 2C8.29498 2 5.5463 5.16414 5.5463 7.94511C5.5463 11.5054 3.64966 11.3188 3.64966 14.2205C3.91343 17.1352 6.63384 17.8476 12.5132 17.8476Z" stroke="#A49EB5" stroke-width="2" stroke-linecap="round" stroke-linejoin="round"/>
<path d="M15.0042 20.8572C13.5818 22.3719 11.3627 22.3899 9.92664 20.8572" stroke="#A49EB5" stroke-width="2" stroke-linecap="round" stroke-linejoin="round"/>
<path d="M21.3982 4C21.3982 5.91347 19.7746 7.5 17.7271 7.5C15.6797 7.5 14.056 5.91347 14.056 4C14.056 2.08653 15.6797 0.5 17.7271 0.5C19.7746 0.5 21.3982 2.08653 21.3982 4Z" fill="#EF5A56" stroke="#EFF9FD"/>
</svg>
